<svg xmlns="http://www.w3.org/2000/svg" xmlns:xlink="http://www.w3.org/1999/xlink" width="500" zoomAndPan="magnify" viewBox="0 0 375 374.999991" height="500" preserveAspectRatio="xMidYMid meet" version="1.0"><defs><g><g id="id1"/></g><clipPath id="id2"><path d="M 65.527344 65.527344 L 309.277344 65.527344 L 309.277344 309.277344 L 65.527344 309.277344 Z M 65.527344 65.527344 " clip-rule="nonzero"/></clipPath></defs><rect x="-37.5" width="450" fill="rgb(100%, 100%, 100%)" y="-37.499999" height="449.999989" fill-opacity="1"/><rect x="-37.5" width="450" fill="rgb(100%, 100%, 100%)" y="-37.499999" height="449.999989" fill-opacity="1"/><rect x="-37.5" width="450" fill="rgb(100%, 100%, 100%)" y="-37.499999" height="449.999989" fill-opacity="1"/><g clip-path="url(#id2)"><path fill="rgb(0%, 0%, 0%)" d="M 306.789062 65.527344 L 68.015625 65.527344 C 66.640625 65.527344 65.527344 66.640625 65.527344 68.015625 L 65.527344 306.789062 C 65.527344 308.164062 66.640625 309.277344 68.015625 309.277344 L 306.789062 309.277344 C 308.164062 309.277344 309.277344 308.164062 309.277344 306.789062 L 309.277344 68.015625 C 309.277344 66.640625 308.164062 65.527344 306.789062 65.527344 Z M 304.300781 304.300781 L 70.5 304.300781 L 70.5 70.5 L 304.300781 70.5 Z M 304.300781 304.300781 " fill-opacity="1" fill-rule="nonzero"/></g><g fill="rgb(0%, 0%, 0%)" fill-opacity="1"><g transform="translate(82.215145, 161.999989)"><g><path d="M 17.46875 -13.53125 L 17.3125 -13.65625 C 17.3125 -14.300781 17.117188 -14.828125 16.734375 -15.234375 C 16.359375 -15.640625 15.90625 -15.953125 15.375 -16.171875 C 14.84375 -16.398438 14.273438 -16.554688 13.671875 -16.640625 C 13.078125 -16.722656 12.554688 -16.765625 12.109375 -16.765625 C 11.109375 -16.765625 10.226562 -16.566406 9.46875 -16.171875 C 8.71875 -15.785156 8.101562 -15.269531 7.625 -14.625 C 7.15625 -13.976562 6.800781 -13.234375 6.5625 -12.390625 C 6.320312 -11.554688 6.203125 -10.695312 6.203125 -9.8125 C 6.203125 -8.851562 6.332031 -7.941406 6.59375 -7.078125 C 6.863281 -6.210938 7.265625 -5.441406 7.796875 -4.765625 C 8.328125 -4.097656 9.003906 -3.5625 9.828125 -3.15625 C 10.648438 -2.757812 11.617188 -2.5625 12.734375 -2.5625 C 13.691406 -2.5625 14.695312 -2.65625 15.75 -2.84375 C 16.8125 -3.039062 17.765625 -3.363281 18.609375 -3.8125 L 19.3125 -2.8125 L 18.6875 -1.640625 C 18.382812 -1.410156 17.988281 -1.175781 17.5 -0.9375 C 17.007812 -0.707031 16.457031 -0.484375 15.84375 -0.265625 C 15.226562 -0.0546875 14.5625 0.113281 13.84375 0.25 C 13.132812 0.394531 12.429688 0.46875 11.734375 0.46875 C 10.367188 0.46875 9.0625 0.222656 7.8125 -0.265625 C 6.570312 -0.753906 5.484375 -1.4375 4.546875 -2.3125 C 3.609375 -3.195312 2.859375 -4.257812 2.296875 -5.5 C 1.742188 -6.75 1.46875 -8.128906 1.46875 -9.640625 C 1.46875 -11.171875 1.742188 -12.566406 2.296875 -13.828125 C 2.859375 -15.085938 3.628906 -16.160156 4.609375 -17.046875 C 5.585938 -17.941406 6.722656 -18.640625 8.015625 -19.140625 C 9.316406 -19.648438 10.707031 -19.90625 12.1875 -19.90625 C 12.863281 -19.90625 13.539062 -19.851562 14.21875 -19.75 C 14.90625 -19.65625 15.5625 -19.535156 16.1875 -19.390625 C 16.820312 -19.253906 17.390625 -19.09375 17.890625 -18.90625 C 18.390625 -18.726562 18.796875 -18.554688 19.109375 -18.390625 L 19.234375 -18.015625 L 18.78125 -13.53125 Z M 17.46875 -13.53125 "/></g></g></g><g fill="rgb(0%, 0%, 0%)" fill-opacity="1"><g transform="translate(102.162403, 161.999989)"><g><path d="M 12.453125 4.859375 C 12.109375 5.703125 11.664062 6.460938 11.125 7.140625 C 10.582031 7.828125 9.960938 8.421875 9.265625 8.921875 C 8.566406 9.429688 7.820312 9.84375 7.03125 10.15625 C 6.25 10.476562 5.457031 10.695312 4.65625 10.8125 C 4.425781 10.863281 4.164062 10.890625 3.875 10.890625 C 3.582031 10.890625 3.15625 10.890625 2.59375 10.890625 L 2.3125 10.8125 L 2.171875 8.671875 L 2.34375 8.46875 L 2.9375 8.46875 C 3.269531 8.46875 3.628906 8.429688 4.015625 8.359375 C 4.410156 8.285156 4.789062 8.15625 5.15625 7.96875 C 5.96875 7.570312 6.710938 7.007812 7.390625 6.28125 C 8.078125 5.5625 8.546875 4.863281 8.796875 4.1875 L 9.96875 1.046875 L 6.625 -6.625 C 6.476562 -6.925781 6.25 -7.46875 5.9375 -8.25 C 5.632812 -9.03125 5.285156 -9.890625 4.890625 -10.828125 C 4.503906 -11.765625 4.09375 -12.691406 3.65625 -13.609375 C 3.226562 -14.535156 2.832031 -15.304688 2.46875 -15.921875 C 2.1875 -16.367188 1.867188 -16.71875 1.515625 -16.96875 C 1.171875 -17.21875 0.707031 -17.375 0.125 -17.4375 L -0.125 -17.640625 L -0.125 -19.0625 L 0.046875 -19.234375 C 0.515625 -19.179688 1.015625 -19.125 1.546875 -19.0625 C 2.078125 -19.007812 2.566406 -18.984375 3.015625 -18.984375 L 6.328125 -18.984375 C 6.742188 -18.984375 7.253906 -19.007812 7.859375 -19.0625 C 8.460938 -19.125 9.015625 -19.179688 9.515625 -19.234375 L 9.6875 -19.0625 L 9.6875 -17.71875 L 9.515625 -17.5625 C 8.984375 -17.5 8.523438 -17.332031 8.140625 -17.0625 C 7.765625 -16.800781 7.578125 -16.421875 7.578125 -15.921875 C 7.578125 -15.585938 7.695312 -15.035156 7.9375 -14.265625 C 8.175781 -13.492188 8.457031 -12.675781 8.78125 -11.8125 C 9.101562 -10.945312 9.410156 -10.144531 9.703125 -9.40625 C 9.992188 -8.664062 10.179688 -8.171875 10.265625 -7.921875 L 12.0625 -2.84375 L 14.171875 -7.921875 C 14.359375 -8.367188 14.59375 -8.929688 14.875 -9.609375 C 15.15625 -10.296875 15.425781 -11.015625 15.6875 -11.765625 C 15.957031 -12.523438 16.1875 -13.269531 16.375 -14 C 16.570312 -14.726562 16.671875 -15.367188 16.671875 -15.921875 C 16.671875 -16.535156 16.460938 -16.945312 16.046875 -17.15625 C 15.628906 -17.363281 15.179688 -17.5 14.703125 -17.5625 L 14.546875 -17.71875 L 14.546875 -19.0625 L 14.703125 -19.234375 C 15.234375 -19.117188 15.738281 -19.046875 16.21875 -19.015625 C 16.695312 -18.992188 17.144531 -18.984375 17.5625 -18.984375 L 20.953125 -18.984375 C 21.429688 -18.984375 21.898438 -19.007812 22.359375 -19.0625 C 22.816406 -19.125 23.3125 -19.179688 23.84375 -19.234375 L 24.015625 -19.0625 L 24.015625 -17.640625 L 23.765625 -17.4375 C 23.285156 -17.375 22.867188 -17.226562 22.515625 -17 C 22.171875 -16.78125 21.847656 -16.421875 21.546875 -15.921875 C 21.117188 -15.253906 20.644531 -14.394531 20.125 -13.34375 C 19.613281 -12.300781 19.113281 -11.25 18.625 -10.1875 C 18.132812 -9.125 17.691406 -8.160156 17.296875 -7.296875 C 16.910156 -6.429688 16.660156 -5.828125 16.546875 -5.484375 Z M 12.453125 4.859375 "/></g></g></g><g fill="rgb(0%, 0%, 0%)" fill-opacity="1"><g transform="translate(125.210724, 161.999989)"><g><path d="M 8.296875 -3.359375 C 8.296875 -2.796875 8.347656 -2.289062 8.453125 -1.84375 C 8.566406 -1.394531 8.679688 -1.019531 8.796875 -0.71875 L 8.546875 0 L 6.625 0 C 6.34375 0 5.941406 0.00390625 5.421875 0.015625 C 4.910156 0.0351562 4.359375 0.0507812 3.765625 0.0625 C 3.179688 0.0703125 2.628906 0.09375 2.109375 0.125 C 1.597656 0.15625 1.203125 0.171875 0.921875 0.171875 L 0.875 0 L 0.96875 -1.421875 L 1.09375 -1.59375 C 1.476562 -1.59375 1.863281 -1.613281 2.25 -1.65625 C 2.644531 -1.695312 2.957031 -1.828125 3.1875 -2.046875 C 3.40625 -2.242188 3.570312 -2.492188 3.6875 -2.796875 C 3.800781 -3.109375 3.859375 -3.546875 3.859375 -4.109375 L 3.859375 -4.65625 C 3.859375 -4.90625 3.863281 -5.140625 3.875 -5.359375 C 3.882812 -5.585938 3.890625 -5.875 3.890625 -6.21875 C 3.890625 -6.570312 3.894531 -7.023438 3.90625 -7.578125 C 3.925781 -8.140625 3.9375 -8.882812 3.9375 -9.8125 L 3.9375 -19.4375 C 3.9375 -20.582031 3.925781 -21.53125 3.90625 -22.28125 C 3.894531 -23.039062 3.882812 -23.6875 3.875 -24.21875 C 3.863281 -24.75 3.847656 -25.207031 3.828125 -25.59375 C 3.816406 -25.988281 3.796875 -26.425781 3.765625 -26.90625 C 3.742188 -27.207031 3.648438 -27.484375 3.484375 -27.734375 C 3.316406 -27.992188 3.175781 -28.164062 3.0625 -28.25 C 2.695312 -28.550781 2.3125 -28.738281 1.90625 -28.8125 C 1.5 -28.882812 1.070312 -28.921875 0.625 -28.921875 L 0.46875 -29.078125 L 0.46875 -30.46875 L 0.625 -30.640625 L 2.71875 -30.640625 C 3.363281 -30.640625 4.09375 -30.644531 4.90625 -30.65625 C 5.71875 -30.664062 6.398438 -30.710938 6.953125 -30.796875 L 8.421875 -31.015625 L 8.671875 -30.21875 C 8.617188 -30.101562 8.570312 -29.898438 8.53125 -29.609375 C 8.488281 -29.316406 8.453125 -29 8.421875 -28.65625 C 8.390625 -28.320312 8.367188 -28 8.359375 -27.6875 C 8.347656 -27.382812 8.34375 -27.148438 8.34375 -26.984375 C 8.34375 -26.535156 8.34375 -26.132812 8.34375 -25.78125 C 8.34375 -25.4375 8.332031 -25.023438 8.3125 -24.546875 C 8.300781 -24.078125 8.296875 -23.484375 8.296875 -22.765625 C 8.296875 -22.054688 8.296875 -21.117188 8.296875 -19.953125 C 8.296875 -18.742188 8.28125 -17.867188 8.25 -17.328125 C 8.226562 -16.785156 8.203125 -16.347656 8.171875 -16.015625 L 8.296875 -15.921875 C 9.109375 -17.097656 10.097656 -18.054688 11.265625 -18.796875 C 12.441406 -19.535156 13.769531 -19.90625 15.25 -19.90625 C 16.84375 -19.90625 18.21875 -19.625 19.375 -19.0625 C 20.539062 -18.507812 21.5 -17.769531 22.25 -16.84375 C 23.007812 -15.925781 23.566406 -14.875 23.921875 -13.6875 C 24.285156 -12.5 24.46875 -11.257812 24.46875 -9.96875 C 24.46875 -8.070312 24.175781 -6.457031 23.59375 -5.125 C 23.007812 -3.800781 22.257812 -2.726562 21.34375 -1.90625 C 20.4375 -1.082031 19.445312 -0.476562 18.375 -0.09375 C 17.300781 0.28125 16.273438 0.46875 15.296875 0.46875 C 13.953125 0.46875 12.6875 0.175781 11.5 -0.40625 C 10.3125 -1 9.285156 -2.007812 8.421875 -3.4375 Z M 19.5625 -9.84375 C 19.5625 -10.6875 19.457031 -11.503906 19.25 -12.296875 C 19.039062 -13.097656 18.726562 -13.8125 18.3125 -14.4375 C 17.894531 -15.0625 17.359375 -15.5625 16.703125 -15.9375 C 16.046875 -16.320312 15.269531 -16.515625 14.375 -16.515625 C 13.425781 -16.515625 12.582031 -16.351562 11.84375 -16.03125 C 11.101562 -15.707031 10.472656 -15.316406 9.953125 -14.859375 C 9.429688 -14.398438 9.023438 -13.914062 8.734375 -13.40625 C 8.441406 -12.90625 8.28125 -12.472656 8.25 -12.109375 L 8.25 -7.453125 C 8.3125 -7.097656 8.472656 -6.660156 8.734375 -6.140625 C 9.003906 -5.617188 9.382812 -5.113281 9.875 -4.625 C 10.363281 -4.132812 10.96875 -3.722656 11.6875 -3.390625 C 12.414062 -3.054688 13.285156 -2.890625 14.296875 -2.890625 C 15.210938 -2.890625 16.003906 -3.09375 16.671875 -3.5 C 17.347656 -3.90625 17.898438 -4.425781 18.328125 -5.0625 C 18.765625 -5.707031 19.078125 -6.445312 19.265625 -7.28125 C 19.460938 -8.125 19.5625 -8.976562 19.5625 -9.84375 Z M 19.5625 -9.84375 "/></g></g></g><g fill="rgb(0%, 0%, 0%)" fill-opacity="1"><g transform="translate(150.396258, 161.999989)"><g><path d="M 19.65625 -10.6875 L 18.640625 -9.9375 C 17.140625 -9.9375 15.65625 -9.921875 14.1875 -9.890625 C 12.71875 -9.859375 11.21875 -9.84375 9.6875 -9.84375 L 6.25 -9.84375 C 6.21875 -9.644531 6.203125 -9.457031 6.203125 -9.28125 C 6.203125 -9.101562 6.203125 -8.929688 6.203125 -8.765625 C 6.203125 -8.035156 6.328125 -7.304688 6.578125 -6.578125 C 6.828125 -5.847656 7.222656 -5.195312 7.765625 -4.625 C 8.316406 -4.050781 9.007812 -3.585938 9.84375 -3.234375 C 10.6875 -2.890625 11.707031 -2.71875 12.90625 -2.71875 C 13.769531 -2.71875 14.679688 -2.835938 15.640625 -3.078125 C 16.609375 -3.316406 17.515625 -3.628906 18.359375 -4.015625 L 19.0625 -3.734375 L 19.0625 -2.21875 L 18.640625 -1.765625 C 17.972656 -1.234375 16.988281 -0.726562 15.6875 -0.25 C 14.394531 0.226562 12.992188 0.46875 11.484375 0.46875 C 10.003906 0.46875 8.65625 0.222656 7.4375 -0.265625 C 6.21875 -0.753906 5.164062 -1.445312 4.28125 -2.34375 C 3.40625 -3.238281 2.722656 -4.300781 2.234375 -5.53125 C 1.753906 -6.757812 1.515625 -8.128906 1.515625 -9.640625 C 1.515625 -11.171875 1.765625 -12.566406 2.265625 -13.828125 C 2.765625 -15.085938 3.453125 -16.160156 4.328125 -17.046875 C 5.210938 -17.941406 6.25 -18.640625 7.4375 -19.140625 C 8.625 -19.648438 9.898438 -19.90625 11.265625 -19.90625 C 11.992188 -19.90625 12.8125 -19.804688 13.71875 -19.609375 C 14.632812 -19.410156 15.507812 -19.039062 16.34375 -18.5 C 17.175781 -17.957031 17.925781 -17.1875 18.59375 -16.1875 C 19.269531 -15.195312 19.734375 -13.894531 19.984375 -12.28125 Z M 11.3125 -16.765625 C 9.945312 -16.765625 8.847656 -16.351562 8.015625 -15.53125 C 7.191406 -14.707031 6.671875 -13.75 6.453125 -12.65625 L 8.546875 -12.65625 C 9.523438 -12.65625 10.488281 -12.675781 11.4375 -12.71875 C 12.382812 -12.757812 13.347656 -12.78125 14.328125 -12.78125 C 14.691406 -12.78125 14.957031 -12.882812 15.125 -13.09375 C 15.289062 -13.300781 15.375 -13.519531 15.375 -13.75 C 15.375 -14.582031 14.96875 -15.289062 14.15625 -15.875 C 13.351562 -16.46875 12.40625 -16.765625 11.3125 -16.765625 Z M 11.3125 -16.765625 "/></g></g></g><g fill="rgb(0%, 0%, 0%)" fill-opacity="1"><g transform="translate(170.804483, 161.999989)"><g><path d="M 8.5 -14.828125 C 8.78125 -15.359375 9.09375 -15.914062 9.4375 -16.5 C 9.789062 -17.09375 10.191406 -17.640625 10.640625 -18.140625 C 11.085938 -18.648438 11.597656 -19.070312 12.171875 -19.40625 C 12.742188 -19.738281 13.394531 -19.90625 14.125 -19.90625 C 14.34375 -19.90625 14.613281 -19.882812 14.9375 -19.84375 C 15.257812 -19.800781 15.582031 -19.738281 15.90625 -19.65625 C 16.226562 -19.570312 16.539062 -19.472656 16.84375 -19.359375 C 17.15625 -19.242188 17.394531 -19.117188 17.5625 -18.984375 L 17.859375 -18.734375 L 17.34375 -14.203125 L 15.546875 -14.203125 C 15.460938 -14.535156 15.242188 -14.875 14.890625 -15.21875 C 14.546875 -15.570312 14.007812 -15.75 13.28125 -15.75 C 12.644531 -15.75 12.0625 -15.585938 11.53125 -15.265625 C 11 -14.953125 10.535156 -14.554688 10.140625 -14.078125 C 9.742188 -13.609375 9.4375 -13.097656 9.21875 -12.546875 C 9 -12.003906 8.890625 -11.507812 8.890625 -11.0625 L 8.890625 -8.171875 C 8.890625 -7.109375 8.894531 -6.3125 8.90625 -5.78125 C 8.914062 -5.25 8.9375 -4.789062 8.96875 -4.40625 C 9.019531 -3.789062 9.09375 -3.289062 9.1875 -2.90625 C 9.289062 -2.53125 9.457031 -2.242188 9.6875 -2.046875 C 9.789062 -1.941406 9.960938 -1.851562 10.203125 -1.78125 C 10.441406 -1.707031 10.6875 -1.65625 10.9375 -1.625 C 11.1875 -1.601562 11.429688 -1.59375 11.671875 -1.59375 C 11.910156 -1.59375 12.097656 -1.59375 12.234375 -1.59375 L 12.453125 -1.390625 L 12.53125 0 L 12.453125 0.171875 C 12.273438 0.171875 11.988281 0.15625 11.59375 0.125 C 11.207031 0.09375 10.789062 0.0703125 10.34375 0.0625 C 9.90625 0.0507812 9.488281 0.0351562 9.09375 0.015625 C 8.695312 0.00390625 8.414062 0 8.25 0 L 5.578125 0 C 5.378906 0 5.078125 0.00390625 4.671875 0.015625 C 4.265625 0.0351562 3.835938 0.0507812 3.390625 0.0625 C 2.941406 0.0703125 2.515625 0.09375 2.109375 0.125 C 1.710938 0.15625 1.414062 0.171875 1.21875 0.171875 L 1.171875 0 L 1.25 -1.421875 L 1.390625 -1.59375 C 1.859375 -1.59375 2.300781 -1.613281 2.71875 -1.65625 C 3.144531 -1.695312 3.46875 -1.828125 3.6875 -2.046875 C 3.90625 -2.242188 4.0625 -2.492188 4.15625 -2.796875 C 4.257812 -3.109375 4.34375 -3.644531 4.40625 -4.40625 C 4.425781 -4.738281 4.4375 -5.179688 4.4375 -5.734375 C 4.4375 -6.296875 4.4375 -7.082031 4.4375 -8.09375 L 4.4375 -11.140625 C 4.4375 -11.734375 4.4375 -12.234375 4.4375 -12.640625 C 4.4375 -13.046875 4.429688 -13.398438 4.421875 -13.703125 C 4.410156 -14.015625 4.394531 -14.296875 4.375 -14.546875 C 4.363281 -14.796875 4.34375 -15.0625 4.3125 -15.34375 C 4.257812 -15.613281 4.175781 -15.875 4.0625 -16.125 C 3.945312 -16.382812 3.847656 -16.554688 3.765625 -16.640625 C 3.492188 -17.003906 3.144531 -17.210938 2.71875 -17.265625 C 2.300781 -17.316406 1.867188 -17.34375 1.421875 -17.34375 L 1.25 -17.515625 L 1.25 -18.9375 L 1.421875 -19.0625 L 2.171875 -19.0625 C 2.785156 -19.0625 3.582031 -19.066406 4.5625 -19.078125 C 5.539062 -19.097656 6.394531 -19.148438 7.125 -19.234375 L 8.59375 -19.4375 L 8.84375 -18.640625 C 8.675781 -18.117188 8.554688 -17.519531 8.484375 -16.84375 C 8.410156 -16.175781 8.375 -15.519531 8.375 -14.875 Z M 8.5 -14.828125 "/></g></g></g><g fill="rgb(0%, 0%, 0%)" fill-opacity="1"><g transform="translate(188.40498, 161.999989)"><g><path d="M 11.015625 -11.734375 C 12.191406 -11.453125 13.140625 -11.070312 13.859375 -10.59375 C 14.585938 -10.125 15.140625 -9.609375 15.515625 -9.046875 C 15.898438 -8.492188 16.15625 -7.921875 16.28125 -7.328125 C 16.40625 -6.742188 16.46875 -6.203125 16.46875 -5.703125 C 16.46875 -4.804688 16.285156 -3.976562 15.921875 -3.21875 C 15.554688 -2.46875 15.03125 -1.820312 14.34375 -1.28125 C 13.664062 -0.738281 12.835938 -0.3125 11.859375 0 C 10.878906 0.3125 9.773438 0.46875 8.546875 0.46875 C 7.265625 0.46875 6.0625 0.332031 4.9375 0.0625 C 3.820312 -0.195312 2.945312 -0.507812 2.3125 -0.875 L 1.796875 -1.421875 L 2.4375 -6.578125 L 3.8125 -6.578125 L 3.9375 -6.40625 C 3.9375 -5.175781 4.3125 -4.207031 5.0625 -3.5 C 5.820312 -2.789062 6.941406 -2.4375 8.421875 -2.4375 C 9.203125 -2.4375 9.863281 -2.507812 10.40625 -2.65625 C 10.957031 -2.8125 11.390625 -3.007812 11.703125 -3.25 C 12.023438 -3.488281 12.253906 -3.753906 12.390625 -4.046875 C 12.535156 -4.335938 12.609375 -4.609375 12.609375 -4.859375 C 12.609375 -5.054688 12.59375 -5.265625 12.5625 -5.484375 C 12.539062 -5.710938 12.457031 -5.941406 12.3125 -6.171875 C 12.175781 -6.410156 11.96875 -6.648438 11.6875 -6.890625 C 11.40625 -7.128906 11.003906 -7.332031 10.484375 -7.5 L 6.453125 -8.5 C 5.535156 -8.726562 4.78125 -9.050781 4.1875 -9.46875 C 3.601562 -9.882812 3.132812 -10.351562 2.78125 -10.875 C 2.4375 -11.394531 2.203125 -11.945312 2.078125 -12.53125 C 1.953125 -13.113281 1.890625 -13.703125 1.890625 -14.296875 C 1.890625 -15.210938 2.066406 -16.023438 2.421875 -16.734375 C 2.785156 -17.453125 3.28125 -18.039062 3.90625 -18.5 C 4.539062 -18.957031 5.273438 -19.304688 6.109375 -19.546875 C 6.953125 -19.785156 7.863281 -19.90625 8.84375 -19.90625 C 10.070312 -19.90625 11.203125 -19.757812 12.234375 -19.46875 C 13.265625 -19.175781 14.0625 -18.859375 14.625 -18.515625 L 15.171875 -18.015625 L 14.703125 -13.953125 L 13.40625 -13.953125 L 13.25 -14.078125 C 13.25 -14.691406 13.085938 -15.203125 12.765625 -15.609375 C 12.441406 -16.015625 12.046875 -16.335938 11.578125 -16.578125 C 11.117188 -16.816406 10.640625 -16.984375 10.140625 -17.078125 C 9.640625 -17.171875 9.191406 -17.21875 8.796875 -17.21875 C 7.679688 -17.21875 6.882812 -16.976562 6.40625 -16.5 C 5.9375 -16.03125 5.703125 -15.503906 5.703125 -14.921875 C 5.703125 -14.421875 5.859375 -13.929688 6.171875 -13.453125 C 6.492188 -12.972656 7.117188 -12.625 8.046875 -12.40625 Z M 11.015625 -11.734375 "/></g></g></g><g fill="rgb(0%, 0%, 0%)" fill-opacity="1"><g transform="translate(205.460704, 161.999989)"><g><path d="M 8.546875 -16.171875 C 9.441406 -17.515625 10.503906 -18.472656 11.734375 -19.046875 C 12.960938 -19.617188 14.234375 -19.90625 15.546875 -19.90625 C 16.523438 -19.90625 17.550781 -19.726562 18.625 -19.375 C 19.695312 -19.03125 20.671875 -18.457031 21.546875 -17.65625 C 22.429688 -16.863281 23.160156 -15.816406 23.734375 -14.515625 C 24.304688 -13.222656 24.59375 -11.625 24.59375 -9.71875 C 24.59375 -8.4375 24.40625 -7.1875 24.03125 -5.96875 C 23.65625 -4.757812 23.082031 -3.675781 22.3125 -2.71875 C 21.539062 -1.769531 20.566406 -1 19.390625 -0.40625 C 18.222656 0.175781 16.84375 0.46875 15.25 0.46875 C 13.738281 0.46875 12.40625 0.09375 11.25 -0.65625 C 10.09375 -1.414062 9.109375 -2.410156 8.296875 -3.640625 L 8.171875 -3.5625 C 8.222656 -3.082031 8.253906 -2.570312 8.265625 -2.03125 C 8.285156 -1.488281 8.296875 -0.703125 8.296875 0.328125 C 8.296875 1.253906 8.296875 2.035156 8.296875 2.671875 C 8.296875 3.316406 8.300781 3.878906 8.3125 4.359375 C 8.332031 4.835938 8.347656 5.25 8.359375 5.59375 C 8.367188 5.945312 8.390625 6.300781 8.421875 6.65625 C 8.472656 7.21875 8.535156 7.648438 8.609375 7.953125 C 8.679688 8.265625 8.828125 8.503906 9.046875 8.671875 C 9.273438 8.898438 9.625 9.039062 10.09375 9.09375 C 10.570312 9.144531 11.035156 9.171875 11.484375 9.171875 L 11.609375 9.296875 L 11.6875 10.765625 L 11.65625 10.890625 C 11.457031 10.890625 11.144531 10.882812 10.71875 10.875 C 10.300781 10.863281 9.867188 10.847656 9.421875 10.828125 C 8.984375 10.816406 8.550781 10.800781 8.125 10.78125 C 7.707031 10.769531 7.398438 10.765625 7.203125 10.765625 L 5.03125 10.765625 C 4.832031 10.765625 4.535156 10.769531 4.140625 10.78125 C 3.753906 10.800781 3.335938 10.816406 2.890625 10.828125 C 2.441406 10.847656 2.019531 10.863281 1.625 10.875 C 1.238281 10.882812 0.945312 10.890625 0.75 10.890625 L 0.671875 10.765625 L 0.75 9.34375 L 0.96875 9.171875 C 1.382812 9.171875 1.796875 9.148438 2.203125 9.109375 C 2.609375 9.066406 2.921875 8.921875 3.140625 8.671875 C 3.367188 8.503906 3.515625 8.265625 3.578125 7.953125 C 3.648438 7.648438 3.710938 7.21875 3.765625 6.65625 C 3.796875 6.1875 3.816406 5.75 3.828125 5.34375 C 3.847656 4.9375 3.863281 4.484375 3.875 3.984375 C 3.882812 3.484375 3.894531 2.875 3.90625 2.15625 C 3.925781 1.445312 3.9375 0.519531 3.9375 -0.625 L 3.9375 -7.796875 C 3.9375 -8.941406 3.9375 -9.882812 3.9375 -10.625 C 3.9375 -11.363281 3.925781 -12 3.90625 -12.53125 C 3.894531 -13.0625 3.875 -13.535156 3.84375 -13.953125 C 3.820312 -14.367188 3.796875 -14.832031 3.765625 -15.34375 C 3.742188 -15.644531 3.675781 -15.914062 3.5625 -16.15625 C 3.445312 -16.394531 3.347656 -16.554688 3.265625 -16.640625 C 3.015625 -16.972656 2.679688 -17.171875 2.265625 -17.234375 C 1.847656 -17.304688 1.398438 -17.34375 0.921875 -17.34375 L 0.75 -17.515625 L 0.75 -18.9375 L 0.921875 -19.0625 L 1.671875 -19.0625 C 2.003906 -19.0625 2.394531 -19.0625 2.84375 -19.0625 C 3.289062 -19.0625 3.757812 -19.066406 4.25 -19.078125 C 4.738281 -19.097656 5.210938 -19.113281 5.671875 -19.125 C 6.140625 -19.144531 6.554688 -19.179688 6.921875 -19.234375 L 8.375 -19.4375 L 8.625 -18.640625 C 8.539062 -18.453125 8.484375 -18.097656 8.453125 -17.578125 C 8.429688 -17.054688 8.421875 -16.617188 8.421875 -16.265625 Z M 19.734375 -9.84375 C 19.734375 -10.6875 19.628906 -11.503906 19.421875 -12.296875 C 19.210938 -13.097656 18.898438 -13.8125 18.484375 -14.4375 C 18.066406 -15.0625 17.523438 -15.5625 16.859375 -15.9375 C 16.203125 -16.320312 15.429688 -16.515625 14.546875 -16.515625 C 13.585938 -16.515625 12.738281 -16.351562 12 -16.03125 C 11.257812 -15.707031 10.628906 -15.316406 10.109375 -14.859375 C 9.597656 -14.398438 9.195312 -13.914062 8.90625 -13.40625 C 8.613281 -12.90625 8.453125 -12.472656 8.421875 -12.109375 L 8.421875 -7.453125 C 8.472656 -7.097656 8.628906 -6.660156 8.890625 -6.140625 C 9.160156 -5.617188 9.539062 -5.113281 10.03125 -4.625 C 10.519531 -4.132812 11.128906 -3.722656 11.859375 -3.390625 C 12.585938 -3.054688 13.453125 -2.890625 14.453125 -2.890625 C 15.378906 -2.890625 16.175781 -3.09375 16.84375 -3.5 C 17.519531 -3.90625 18.070312 -4.425781 18.5 -5.0625 C 18.9375 -5.707031 19.25 -6.445312 19.4375 -7.28125 C 19.632812 -8.125 19.734375 -8.976562 19.734375 -9.84375 Z M 19.734375 -9.84375 "/></g></g></g><g fill="rgb(0%, 0%, 0%)" fill-opacity="1"><g transform="translate(230.771967, 161.999989)"><g><path d="M 13.078125 -0.296875 C 13.160156 -0.546875 13.222656 -0.90625 13.265625 -1.375 C 13.304688 -1.851562 13.367188 -2.289062 13.453125 -2.6875 L 13.40625 -2.8125 C 13.070312 -2.382812 12.6875 -1.972656 12.25 -1.578125 C 11.820312 -1.191406 11.34375 -0.84375 10.8125 -0.53125 C 10.28125 -0.226562 9.710938 0.0078125 9.109375 0.1875 C 8.515625 0.375 7.878906 0.46875 7.203125 0.46875 C 6.203125 0.46875 5.320312 0.3125 4.5625 0 C 3.8125 -0.3125 3.179688 -0.71875 2.671875 -1.21875 C 2.171875 -1.71875 1.785156 -2.300781 1.515625 -2.96875 C 1.253906 -3.644531 1.125 -4.347656 1.125 -5.078125 C 1.125 -6.160156 1.363281 -7.109375 1.84375 -7.921875 C 2.320312 -8.734375 2.953125 -9.390625 3.734375 -9.890625 C 4.453125 -10.367188 5.300781 -10.738281 6.28125 -11 C 7.257812 -11.269531 8.207031 -11.472656 9.125 -11.609375 C 10.050781 -11.742188 10.890625 -11.832031 11.640625 -11.875 C 12.398438 -11.914062 12.90625 -11.9375 13.15625 -11.9375 L 13.75 -11.9375 C 13.71875 -12.8125 13.660156 -13.488281 13.578125 -13.96875 C 13.492188 -14.457031 13.382812 -14.875 13.25 -15.21875 C 12.988281 -15.769531 12.570312 -16.164062 12 -16.40625 C 11.425781 -16.644531 10.75 -16.765625 9.96875 -16.765625 C 9.5 -16.765625 8.988281 -16.726562 8.4375 -16.65625 C 7.894531 -16.582031 7.382812 -16.445312 6.90625 -16.25 C 6.4375 -16.0625 6.023438 -15.789062 5.671875 -15.4375 C 5.328125 -15.09375 5.128906 -14.640625 5.078125 -14.078125 L 4.90625 -13.953125 L 3.5625 -13.953125 L 3.1875 -17.890625 L 3.3125 -18.140625 C 3.476562 -18.304688 3.796875 -18.488281 4.265625 -18.6875 C 4.742188 -18.882812 5.316406 -19.070312 5.984375 -19.25 C 6.660156 -19.4375 7.394531 -19.59375 8.1875 -19.71875 C 8.988281 -19.84375 9.796875 -19.90625 10.609375 -19.90625 C 11.691406 -19.90625 12.707031 -19.769531 13.65625 -19.5 C 14.613281 -19.238281 15.429688 -18.84375 16.109375 -18.3125 C 16.796875 -17.78125 17.332031 -17.113281 17.71875 -16.3125 C 18.113281 -15.519531 18.3125 -14.59375 18.3125 -13.53125 C 18.3125 -12.382812 18.300781 -11.40625 18.28125 -10.59375 C 18.269531 -9.789062 18.25 -9.039062 18.21875 -8.34375 C 18.195312 -7.644531 18.175781 -6.96875 18.15625 -6.3125 C 18.144531 -5.65625 18.140625 -4.921875 18.140625 -4.109375 C 18.203125 -3.460938 18.273438 -3 18.359375 -2.71875 C 18.441406 -2.445312 18.582031 -2.222656 18.78125 -2.046875 C 19 -1.828125 19.335938 -1.695312 19.796875 -1.65625 C 20.265625 -1.613281 20.691406 -1.59375 21.078125 -1.59375 L 21.203125 -1.421875 L 21.28125 0 L 21.25 0.171875 C 20.769531 0.109375 20.222656 0.0625 19.609375 0.03125 C 18.992188 0.0078125 18.421875 0 17.890625 0 C 17.109375 0 16.328125 0.00390625 15.546875 0.015625 C 14.765625 0.0351562 14.023438 0.0703125 13.328125 0.125 Z M 13.078125 -4.8125 C 13.160156 -4.957031 13.25 -5.125 13.34375 -5.3125 C 13.445312 -5.507812 13.507812 -5.75 13.53125 -6.03125 L 13.75 -9.59375 L 13.375 -9.59375 C 12.5 -9.59375 11.640625 -9.535156 10.796875 -9.421875 C 9.960938 -9.316406 9.210938 -9.109375 8.546875 -8.796875 C 7.878906 -8.492188 7.332031 -8.0625 6.90625 -7.5 C 6.488281 -6.9375 6.28125 -6.210938 6.28125 -5.328125 C 6.28125 -4.566406 6.46875 -3.960938 6.84375 -3.515625 C 7.226562 -3.066406 7.738281 -2.84375 8.375 -2.84375 C 8.851562 -2.84375 9.335938 -2.90625 9.828125 -3.03125 C 10.316406 -3.164062 10.769531 -3.328125 11.1875 -3.515625 C 11.601562 -3.710938 11.976562 -3.929688 12.3125 -4.171875 C 12.65625 -4.410156 12.910156 -4.625 13.078125 -4.8125 Z M 13.078125 -4.8125 "/></g></g></g><g fill="rgb(0%, 0%, 0%)" fill-opacity="1"><g transform="translate(251.599251, 161.999989)"><g><path d="M 17.46875 -13.53125 L 17.3125 -13.65625 C 17.3125 -14.300781 17.117188 -14.828125 16.734375 -15.234375 C 16.359375 -15.640625 15.90625 -15.953125 15.375 -16.171875 C 14.84375 -16.398438 14.273438 -16.554688 13.671875 -16.640625 C 13.078125 -16.722656 12.554688 -16.765625 12.109375 -16.765625 C 11.109375 -16.765625 10.226562 -16.566406 9.46875 -16.171875 C 8.71875 -15.785156 8.101562 -15.269531 7.625 -14.625 C 7.15625 -13.976562 6.800781 -13.234375 6.5625 -12.390625 C 6.320312 -11.554688 6.203125 -10.695312 6.203125 -9.8125 C 6.203125 -8.851562 6.332031 -7.941406 6.59375 -7.078125 C 6.863281 -6.210938 7.265625 -5.441406 7.796875 -4.765625 C 8.328125 -4.097656 9.003906 -3.5625 9.828125 -3.15625 C 10.648438 -2.757812 11.617188 -2.5625 12.734375 -2.5625 C 13.691406 -2.5625 14.695312 -2.65625 15.75 -2.84375 C 16.8125 -3.039062 17.765625 -3.363281 18.609375 -3.8125 L 19.3125 -2.8125 L 18.6875 -1.640625 C 18.382812 -1.410156 17.988281 -1.175781 17.5 -0.9375 C 17.007812 -0.707031 16.457031 -0.484375 15.84375 -0.265625 C 15.226562 -0.0546875 14.5625 0.113281 13.84375 0.25 C 13.132812 0.394531 12.429688 0.46875 11.734375 0.46875 C 10.367188 0.46875 9.0625 0.222656 7.8125 -0.265625 C 6.570312 -0.753906 5.484375 -1.4375 4.546875 -2.3125 C 3.609375 -3.195312 2.859375 -4.257812 2.296875 -5.5 C 1.742188 -6.75 1.46875 -8.128906 1.46875 -9.640625 C 1.46875 -11.171875 1.742188 -12.566406 2.296875 -13.828125 C 2.859375 -15.085938 3.628906 -16.160156 4.609375 -17.046875 C 5.585938 -17.941406 6.722656 -18.640625 8.015625 -19.140625 C 9.316406 -19.648438 10.707031 -19.90625 12.1875 -19.90625 C 12.863281 -19.90625 13.539062 -19.851562 14.21875 -19.75 C 14.90625 -19.65625 15.5625 -19.535156 16.1875 -19.390625 C 16.820312 -19.253906 17.390625 -19.09375 17.890625 -18.90625 C 18.390625 -18.726562 18.796875 -18.554688 19.109375 -18.390625 L 19.234375 -18.015625 L 18.78125 -13.53125 Z M 17.46875 -13.53125 "/></g></g></g><g fill="rgb(0%, 0%, 0%)" fill-opacity="1"><g transform="translate(271.546508, 161.999989)"><g><path d="M 19.65625 -10.6875 L 18.640625 -9.9375 C 17.140625 -9.9375 15.65625 -9.921875 14.1875 -9.890625 C 12.71875 -9.859375 11.21875 -9.84375 9.6875 -9.84375 L 6.25 -9.84375 C 6.21875 -9.644531 6.203125 -9.457031 6.203125 -9.28125 C 6.203125 -9.101562 6.203125 -8.929688 6.203125 -8.765625 C 6.203125 -8.035156 6.328125 -7.304688 6.578125 -6.578125 C 6.828125 -5.847656 7.222656 -5.195312 7.765625 -4.625 C 8.316406 -4.050781 9.007812 -3.585938 9.84375 -3.234375 C 10.6875 -2.890625 11.707031 -2.71875 12.90625 -2.71875 C 13.769531 -2.71875 14.679688 -2.835938 15.640625 -3.078125 C 16.609375 -3.316406 17.515625 -3.628906 18.359375 -4.015625 L 19.0625 -3.734375 L 19.0625 -2.21875 L 18.640625 -1.765625 C 17.972656 -1.234375 16.988281 -0.726562 15.6875 -0.25 C 14.394531 0.226562 12.992188 0.46875 11.484375 0.46875 C 10.003906 0.46875 8.65625 0.222656 7.4375 -0.265625 C 6.21875 -0.753906 5.164062 -1.445312 4.28125 -2.34375 C 3.40625 -3.238281 2.722656 -4.300781 2.234375 -5.53125 C 1.753906 -6.757812 1.515625 -8.128906 1.515625 -9.640625 C 1.515625 -11.171875 1.765625 -12.566406 2.265625 -13.828125 C 2.765625 -15.085938 3.453125 -16.160156 4.328125 -17.046875 C 5.210938 -17.941406 6.25 -18.640625 7.4375 -19.140625 C 8.625 -19.648438 9.898438 -19.90625 11.265625 -19.90625 C 11.992188 -19.90625 12.8125 -19.804688 13.71875 -19.609375 C 14.632812 -19.410156 15.507812 -19.039062 16.34375 -18.5 C 17.175781 -17.957031 17.925781 -17.1875 18.59375 -16.1875 C 19.269531 -15.195312 19.734375 -13.894531 19.984375 -12.28125 Z M 11.3125 -16.765625 C 9.945312 -16.765625 8.847656 -16.351562 8.015625 -15.53125 C 7.191406 -14.707031 6.671875 -13.75 6.453125 -12.65625 L 8.546875 -12.65625 C 9.523438 -12.65625 10.488281 -12.675781 11.4375 -12.71875 C 12.382812 -12.757812 13.347656 -12.78125 14.328125 -12.78125 C 14.691406 -12.78125 14.957031 -12.882812 15.125 -13.09375 C 15.289062 -13.300781 15.375 -13.519531 15.375 -13.75 C 15.375 -14.582031 14.96875 -15.289062 14.15625 -15.875 C 13.351562 -16.46875 12.40625 -16.765625 11.3125 -16.765625 Z M 11.3125 -16.765625 "/></g></g></g><g fill="rgb(0%, 0%, 0%)" fill-opacity="1"><g transform="translate(182.152639, 199.499987)"><g><path d="M 2.640625 -10.21875 C 2.640625 -10.5625 2.707031 -10.898438 2.84375 -11.234375 C 2.988281 -11.566406 3.1875 -11.863281 3.4375 -12.125 C 3.6875 -12.394531 3.972656 -12.601562 4.296875 -12.75 C 4.617188 -12.90625 4.960938 -12.984375 5.328125 -12.984375 C 6.023438 -12.984375 6.660156 -12.695312 7.234375 -12.125 C 7.804688 -11.550781 8.09375 -10.914062 8.09375 -10.21875 C 8.09375 -9.863281 8.015625 -9.523438 7.859375 -9.203125 C 7.703125 -8.878906 7.488281 -8.59375 7.21875 -8.34375 C 6.957031 -8.09375 6.660156 -7.894531 6.328125 -7.75 C 5.992188 -7.613281 5.660156 -7.546875 5.328125 -7.546875 C 4.597656 -7.546875 3.96875 -7.8125 3.4375 -8.34375 C 2.90625 -8.875 2.640625 -9.5 2.640625 -10.21875 Z M 2.640625 -10.21875 "/></g></g></g><g fill="rgb(0%, 0%, 0%)" fill-opacity="1"><g transform="translate(140.691704, 236.999984)"><g><path d="M 8.546875 -16.171875 C 9.441406 -17.515625 10.503906 -18.472656 11.734375 -19.046875 C 12.960938 -19.617188 14.234375 -19.90625 15.546875 -19.90625 C 16.523438 -19.90625 17.550781 -19.726562 18.625 -19.375 C 19.695312 -19.03125 20.671875 -18.457031 21.546875 -17.65625 C 22.429688 -16.863281 23.160156 -15.816406 23.734375 -14.515625 C 24.304688 -13.222656 24.59375 -11.625 24.59375 -9.71875 C 24.59375 -8.4375 24.40625 -7.1875 24.03125 -5.96875 C 23.65625 -4.757812 23.082031 -3.675781 22.3125 -2.71875 C 21.539062 -1.769531 20.566406 -1 19.390625 -0.40625 C 18.222656 0.175781 16.84375 0.46875 15.25 0.46875 C 13.738281 0.46875 12.40625 0.09375 11.25 -0.65625 C 10.09375 -1.414062 9.109375 -2.410156 8.296875 -3.640625 L 8.171875 -3.5625 C 8.222656 -3.082031 8.253906 -2.570312 8.265625 -2.03125 C 8.285156 -1.488281 8.296875 -0.703125 8.296875 0.328125 C 8.296875 1.253906 8.296875 2.035156 8.296875 2.671875 C 8.296875 3.316406 8.300781 3.878906 8.3125 4.359375 C 8.332031 4.835938 8.347656 5.25 8.359375 5.59375 C 8.367188 5.945312 8.390625 6.300781 8.421875 6.65625 C 8.472656 7.21875 8.535156 7.648438 8.609375 7.953125 C 8.679688 8.265625 8.828125 8.503906 9.046875 8.671875 C 9.273438 8.898438 9.625 9.039062 10.09375 9.09375 C 10.570312 9.144531 11.035156 9.171875 11.484375 9.171875 L 11.609375 9.296875 L 11.6875 10.765625 L 11.65625 10.890625 C 11.457031 10.890625 11.144531 10.882812 10.71875 10.875 C 10.300781 10.863281 9.867188 10.847656 9.421875 10.828125 C 8.984375 10.816406 8.550781 10.800781 8.125 10.78125 C 7.707031 10.769531 7.398438 10.765625 7.203125 10.765625 L 5.03125 10.765625 C 4.832031 10.765625 4.535156 10.769531 4.140625 10.78125 C 3.753906 10.800781 3.335938 10.816406 2.890625 10.828125 C 2.441406 10.847656 2.019531 10.863281 1.625 10.875 C 1.238281 10.882812 0.945312 10.890625 0.75 10.890625 L 0.671875 10.765625 L 0.75 9.34375 L 0.96875 9.171875 C 1.382812 9.171875 1.796875 9.148438 2.203125 9.109375 C 2.609375 9.066406 2.921875 8.921875 3.140625 8.671875 C 3.367188 8.503906 3.515625 8.265625 3.578125 7.953125 C 3.648438 7.648438 3.710938 7.21875 3.765625 6.65625 C 3.796875 6.1875 3.816406 5.75 3.828125 5.34375 C 3.847656 4.9375 3.863281 4.484375 3.875 3.984375 C 3.882812 3.484375 3.894531 2.875 3.90625 2.15625 C 3.925781 1.445312 3.9375 0.519531 3.9375 -0.625 L 3.9375 -7.796875 C 3.9375 -8.941406 3.9375 -9.882812 3.9375 -10.625 C 3.9375 -11.363281 3.925781 -12 3.90625 -12.53125 C 3.894531 -13.0625 3.875 -13.535156 3.84375 -13.953125 C 3.820312 -14.367188 3.796875 -14.832031 3.765625 -15.34375 C 3.742188 -15.644531 3.675781 -15.914062 3.5625 -16.15625 C 3.445312 -16.394531 3.347656 -16.554688 3.265625 -16.640625 C 3.015625 -16.972656 2.679688 -17.171875 2.265625 -17.234375 C 1.847656 -17.304688 1.398438 -17.34375 0.921875 -17.34375 L 0.75 -17.515625 L 0.75 -18.9375 L 0.921875 -19.0625 L 1.671875 -19.0625 C 2.003906 -19.0625 2.394531 -19.0625 2.84375 -19.0625 C 3.289062 -19.0625 3.757812 -19.066406 4.25 -19.078125 C 4.738281 -19.097656 5.210938 -19.113281 5.671875 -19.125 C 6.140625 -19.144531 6.554688 -19.179688 6.921875 -19.234375 L 8.375 -19.4375 L 8.625 -18.640625 C 8.539062 -18.453125 8.484375 -18.097656 8.453125 -17.578125 C 8.429688 -17.054688 8.421875 -16.617188 8.421875 -16.265625 Z M 19.734375 -9.84375 C 19.734375 -10.6875 19.628906 -11.503906 19.421875 -12.296875 C 19.210938 -13.097656 18.898438 -13.8125 18.484375 -14.4375 C 18.066406 -15.0625 17.523438 -15.5625 16.859375 -15.9375 C 16.203125 -16.320312 15.429688 -16.515625 14.546875 -16.515625 C 13.585938 -16.515625 12.738281 -16.351562 12 -16.03125 C 11.257812 -15.707031 10.628906 -15.316406 10.109375 -14.859375 C 9.597656 -14.398438 9.195312 -13.914062 8.90625 -13.40625 C 8.613281 -12.90625 8.453125 -12.472656 8.421875 -12.109375 L 8.421875 -7.453125 C 8.472656 -7.097656 8.628906 -6.660156 8.890625 -6.140625 C 9.160156 -5.617188 9.539062 -5.113281 10.03125 -4.625 C 10.519531 -4.132812 11.128906 -3.722656 11.859375 -3.390625 C 12.585938 -3.054688 13.453125 -2.890625 14.453125 -2.890625 C 15.378906 -2.890625 16.175781 -3.09375 16.84375 -3.5 C 17.519531 -3.90625 18.070312 -4.425781 18.5 -5.0625 C 18.9375 -5.707031 19.25 -6.445312 19.4375 -7.28125 C 19.632812 -8.125 19.734375 -8.976562 19.734375 -9.84375 Z M 19.734375 -9.84375 "/></g></g></g><g fill="rgb(0%, 0%, 0%)" fill-opacity="1"><g transform="translate(166.002966, 236.999984)"><g><path d="M 13.078125 -0.296875 C 13.160156 -0.546875 13.222656 -0.90625 13.265625 -1.375 C 13.304688 -1.851562 13.367188 -2.289062 13.453125 -2.6875 L 13.40625 -2.8125 C 13.070312 -2.382812 12.6875 -1.972656 12.25 -1.578125 C 11.820312 -1.191406 11.34375 -0.84375 10.8125 -0.53125 C 10.28125 -0.226562 9.710938 0.0078125 9.109375 0.1875 C 8.515625 0.375 7.878906 0.46875 7.203125 0.46875 C 6.203125 0.46875 5.320312 0.3125 4.5625 0 C 3.8125 -0.3125 3.179688 -0.71875 2.671875 -1.21875 C 2.171875 -1.71875 1.785156 -2.300781 1.515625 -2.96875 C 1.253906 -3.644531 1.125 -4.347656 1.125 -5.078125 C 1.125 -6.160156 1.363281 -7.109375 1.84375 -7.921875 C 2.320312 -8.734375 2.953125 -9.390625 3.734375 -9.890625 C 4.453125 -10.367188 5.300781 -10.738281 6.28125 -11 C 7.257812 -11.269531 8.207031 -11.472656 9.125 -11.609375 C 10.050781 -11.742188 10.890625 -11.832031 11.640625 -11.875 C 12.398438 -11.914062 12.90625 -11.9375 13.15625 -11.9375 L 13.75 -11.9375 C 13.71875 -12.8125 13.660156 -13.488281 13.578125 -13.96875 C 13.492188 -14.457031 13.382812 -14.875 13.25 -15.21875 C 12.988281 -15.769531 12.570312 -16.164062 12 -16.40625 C 11.425781 -16.644531 10.75 -16.765625 9.96875 -16.765625 C 9.5 -16.765625 8.988281 -16.726562 8.4375 -16.65625 C 7.894531 -16.582031 7.382812 -16.445312 6.90625 -16.25 C 6.4375 -16.0625 6.023438 -15.789062 5.671875 -15.4375 C 5.328125 -15.09375 5.128906 -14.640625 5.078125 -14.078125 L 4.90625 -13.953125 L 3.5625 -13.953125 L 3.1875 -17.890625 L 3.3125 -18.140625 C 3.476562 -18.304688 3.796875 -18.488281 4.265625 -18.6875 C 4.742188 -18.882812 5.316406 -19.070312 5.984375 -19.25 C 6.660156 -19.4375 7.394531 -19.59375 8.1875 -19.71875 C 8.988281 -19.84375 9.796875 -19.90625 10.609375 -19.90625 C 11.691406 -19.90625 12.707031 -19.769531 13.65625 -19.5 C 14.613281 -19.238281 15.429688 -18.84375 16.109375 -18.3125 C 16.796875 -17.78125 17.332031 -17.113281 17.71875 -16.3125 C 18.113281 -15.519531 18.3125 -14.59375 18.3125 -13.53125 C 18.3125 -12.382812 18.300781 -11.40625 18.28125 -10.59375 C 18.269531 -9.789062 18.25 -9.039062 18.21875 -8.34375 C 18.195312 -7.644531 18.175781 -6.96875 18.15625 -6.3125 C 18.144531 -5.65625 18.140625 -4.921875 18.140625 -4.109375 C 18.203125 -3.460938 18.273438 -3 18.359375 -2.71875 C 18.441406 -2.445312 18.582031 -2.222656 18.78125 -2.046875 C 19 -1.828125 19.335938 -1.695312 19.796875 -1.65625 C 20.265625 -1.613281 20.691406 -1.59375 21.078125 -1.59375 L 21.203125 -1.421875 L 21.28125 0 L 21.25 0.171875 C 20.769531 0.109375 20.222656 0.0625 19.609375 0.03125 C 18.992188 0.0078125 18.421875 0 17.890625 0 C 17.109375 0 16.328125 0.00390625 15.546875 0.015625 C 14.765625 0.0351562 14.023438 0.0703125 13.328125 0.125 Z M 13.078125 -4.8125 C 13.160156 -4.957031 13.25 -5.125 13.34375 -5.3125 C 13.445312 -5.507812 13.507812 -5.75 13.53125 -6.03125 L 13.75 -9.59375 L 13.375 -9.59375 C 12.5 -9.59375 11.640625 -9.535156 10.796875 -9.421875 C 9.960938 -9.316406 9.210938 -9.109375 8.546875 -8.796875 C 7.878906 -8.492188 7.332031 -8.0625 6.90625 -7.5 C 6.488281 -6.9375 6.28125 -6.210938 6.28125 -5.328125 C 6.28125 -4.566406 6.46875 -3.960938 6.84375 -3.515625 C 7.226562 -3.066406 7.738281 -2.84375 8.375 -2.84375 C 8.851562 -2.84375 9.335938 -2.90625 9.828125 -3.03125 C 10.316406 -3.164062 10.769531 -3.328125 11.1875 -3.515625 C 11.601562 -3.710938 11.976562 -3.929688 12.3125 -4.171875 C 12.65625 -4.410156 12.910156 -4.625 13.078125 -4.8125 Z M 13.078125 -4.8125 "/></g></g></g><g fill="rgb(0%, 0%, 0%)" fill-opacity="1"><g transform="translate(186.83025, 236.999984)"><g><path d="M 8.5 -14.828125 C 8.78125 -15.359375 9.09375 -15.914062 9.4375 -16.5 C 9.789062 -17.09375 10.191406 -17.640625 10.640625 -18.140625 C 11.085938 -18.648438 11.597656 -19.070312 12.171875 -19.40625 C 12.742188 -19.738281 13.394531 -19.90625 14.125 -19.90625 C 14.34375 -19.90625 14.613281 -19.882812 14.9375 -19.84375 C 15.257812 -19.800781 15.582031 -19.738281 15.90625 -19.65625 C 16.226562 -19.570312 16.539062 -19.472656 16.84375 -19.359375 C 17.15625 -19.242188 17.394531 -19.117188 17.5625 -18.984375 L 17.859375 -18.734375 L 17.34375 -14.203125 L 15.546875 -14.203125 C 15.460938 -14.535156 15.242188 -14.875 14.890625 -15.21875 C 14.546875 -15.570312 14.007812 -15.75 13.28125 -15.75 C 12.644531 -15.75 12.0625 -15.585938 11.53125 -15.265625 C 11 -14.953125 10.535156 -14.554688 10.140625 -14.078125 C 9.742188 -13.609375 9.4375 -13.097656 9.21875 -12.546875 C 9 -12.003906 8.890625 -11.507812 8.890625 -11.0625 L 8.890625 -8.171875 C 8.890625 -7.109375 8.894531 -6.3125 8.90625 -5.78125 C 8.914062 -5.25 8.9375 -4.789062 8.96875 -4.40625 C 9.019531 -3.789062 9.09375 -3.289062 9.1875 -2.90625 C 9.289062 -2.53125 9.457031 -2.242188 9.6875 -2.046875 C 9.789062 -1.941406 9.960938 -1.851562 10.203125 -1.78125 C 10.441406 -1.707031 10.6875 -1.65625 10.9375 -1.625 C 11.1875 -1.601562 11.429688 -1.59375 11.671875 -1.59375 C 11.910156 -1.59375 12.097656 -1.59375 12.234375 -1.59375 L 12.453125 -1.390625 L 12.53125 0 L 12.453125 0.171875 C 12.273438 0.171875 11.988281 0.15625 11.59375 0.125 C 11.207031 0.09375 10.789062 0.0703125 10.34375 0.0625 C 9.90625 0.0507812 9.488281 0.0351562 9.09375 0.015625 C 8.695312 0.00390625 8.414062 0 8.25 0 L 5.578125 0 C 5.378906 0 5.078125 0.00390625 4.671875 0.015625 C 4.265625 0.0351562 3.835938 0.0507812 3.390625 0.0625 C 2.941406 0.0703125 2.515625 0.09375 2.109375 0.125 C 1.710938 0.15625 1.414062 0.171875 1.21875 0.171875 L 1.171875 0 L 1.25 -1.421875 L 1.390625 -1.59375 C 1.859375 -1.59375 2.300781 -1.613281 2.71875 -1.65625 C 3.144531 -1.695312 3.46875 -1.828125 3.6875 -2.046875 C 3.90625 -2.242188 4.0625 -2.492188 4.15625 -2.796875 C 4.257812 -3.109375 4.34375 -3.644531 4.40625 -4.40625 C 4.425781 -4.738281 4.4375 -5.179688 4.4375 -5.734375 C 4.4375 -6.296875 4.4375 -7.082031 4.4375 -8.09375 L 4.4375 -11.140625 C 4.4375 -11.734375 4.4375 -12.234375 4.4375 -12.640625 C 4.4375 -13.046875 4.429688 -13.398438 4.421875 -13.703125 C 4.410156 -14.015625 4.394531 -14.296875 4.375 -14.546875 C 4.363281 -14.796875 4.34375 -15.0625 4.3125 -15.34375 C 4.257812 -15.613281 4.175781 -15.875 4.0625 -16.125 C 3.945312 -16.382812 3.847656 -16.554688 3.765625 -16.640625 C 3.492188 -17.003906 3.144531 -17.210938 2.71875 -17.265625 C 2.300781 -17.316406 1.867188 -17.34375 1.421875 -17.34375 L 1.25 -17.515625 L 1.25 -18.9375 L 1.421875 -19.0625 L 2.171875 -19.0625 C 2.785156 -19.0625 3.582031 -19.066406 4.5625 -19.078125 C 5.539062 -19.097656 6.394531 -19.148438 7.125 -19.234375 L 8.59375 -19.4375 L 8.84375 -18.640625 C 8.675781 -18.117188 8.554688 -17.519531 8.484375 -16.84375 C 8.410156 -16.175781 8.375 -15.519531 8.375 -14.875 Z M 8.5 -14.828125 "/></g></g></g><g fill="rgb(0%, 0%, 0%)" fill-opacity="1"><g transform="translate(204.430747, 236.999984)"><g><path d="M 12.0625 0.171875 C 11.875 0.171875 11.582031 0.15625 11.1875 0.125 C 10.800781 0.09375 10.382812 0.0703125 9.9375 0.0625 C 9.488281 0.0507812 9.066406 0.0351562 8.671875 0.015625 C 8.285156 0.00390625 7.992188 0 7.796875 0 L 5.53125 0 C 5.332031 0 5.03125 0.00390625 4.625 0.015625 C 4.21875 0.0351562 3.796875 0.0507812 3.359375 0.0625 C 2.929688 0.0703125 2.515625 0.09375 2.109375 0.125 C 1.710938 0.15625 1.414062 0.171875 1.21875 0.171875 L 1.171875 0 L 1.25 -1.421875 L 1.390625 -1.59375 C 1.804688 -1.59375 2.238281 -1.613281 2.6875 -1.65625 C 3.132812 -1.695312 3.46875 -1.828125 3.6875 -2.046875 C 3.882812 -2.242188 4.023438 -2.492188 4.109375 -2.796875 C 4.191406 -3.109375 4.257812 -3.546875 4.3125 -4.109375 C 4.34375 -4.304688 4.363281 -4.5 4.375 -4.6875 C 4.394531 -4.882812 4.410156 -5.09375 4.421875 -5.3125 C 4.429688 -5.539062 4.4375 -5.804688 4.4375 -6.109375 C 4.4375 -6.421875 4.4375 -6.800781 4.4375 -7.25 L 4.4375 -11.984375 C 4.4375 -12.515625 4.4375 -12.941406 4.4375 -13.265625 C 4.4375 -13.585938 4.429688 -13.859375 4.421875 -14.078125 C 4.410156 -14.304688 4.394531 -14.507812 4.375 -14.6875 C 4.363281 -14.863281 4.34375 -15.082031 4.3125 -15.34375 C 4.257812 -15.613281 4.175781 -15.875 4.0625 -16.125 C 3.945312 -16.382812 3.847656 -16.554688 3.765625 -16.640625 C 3.492188 -17.003906 3.144531 -17.210938 2.71875 -17.265625 C 2.300781 -17.316406 1.867188 -17.34375 1.421875 -17.34375 L 1.25 -17.515625 L 1.25 -18.9375 L 1.421875 -19.0625 L 3.5625 -19.0625 C 4.207031 -19.0625 4.890625 -19.066406 5.609375 -19.078125 C 6.335938 -19.097656 6.984375 -19.148438 7.546875 -19.234375 L 9.015625 -19.4375 L 9.265625 -18.640625 C 9.203125 -18.535156 9.148438 -18.363281 9.109375 -18.125 C 9.066406 -17.882812 9.039062 -17.628906 9.03125 -17.359375 C 9.019531 -17.097656 9.003906 -16.832031 8.984375 -16.5625 C 8.972656 -16.300781 8.96875 -16.085938 8.96875 -15.921875 C 8.96875 -15.703125 8.957031 -15.5 8.9375 -15.3125 C 8.925781 -15.132812 8.921875 -14.925781 8.921875 -14.6875 C 8.921875 -14.445312 8.914062 -14.144531 8.90625 -13.78125 C 8.894531 -13.425781 8.890625 -12.984375 8.890625 -12.453125 L 8.890625 -7.75 C 8.890625 -7.195312 8.894531 -6.742188 8.90625 -6.390625 C 8.914062 -6.035156 8.925781 -5.734375 8.9375 -5.484375 C 8.957031 -5.234375 8.972656 -5.003906 8.984375 -4.796875 C 9.003906 -4.585938 9.023438 -4.359375 9.046875 -4.109375 C 9.109375 -3.523438 9.171875 -3.082031 9.234375 -2.78125 C 9.304688 -2.488281 9.457031 -2.242188 9.6875 -2.046875 C 9.90625 -1.828125 10.21875 -1.695312 10.625 -1.65625 C 11.03125 -1.613281 11.441406 -1.59375 11.859375 -1.59375 L 12.0625 -1.390625 L 12.15625 0 Z M 3.5625 -25.6875 C 3.5625 -26.019531 3.628906 -26.351562 3.765625 -26.6875 C 3.910156 -27.03125 4.109375 -27.332031 4.359375 -27.59375 C 4.609375 -27.863281 4.894531 -28.070312 5.21875 -28.21875 C 5.539062 -28.375 5.882812 -28.453125 6.25 -28.453125 C 6.945312 -28.453125 7.582031 -28.164062 8.15625 -27.59375 C 8.726562 -27.019531 9.015625 -26.382812 9.015625 -25.6875 C 9.015625 -25.320312 8.9375 -24.976562 8.78125 -24.65625 C 8.625 -24.34375 8.410156 -24.054688 8.140625 -23.796875 C 7.878906 -23.546875 7.582031 -23.347656 7.25 -23.203125 C 6.914062 -23.066406 6.582031 -23 6.25 -23 C 5.519531 -23 4.890625 -23.265625 4.359375 -23.796875 C 3.828125 -24.328125 3.5625 -24.957031 3.5625 -25.6875 Z M 3.5625 -25.6875 "/></g></g></g><g fill="rgb(0%, 0%, 0%)" fill-opacity="1"><g transform="translate(216.415801, 236.999984)"><g><path d="M 11.015625 -11.734375 C 12.191406 -11.453125 13.140625 -11.070312 13.859375 -10.59375 C 14.585938 -10.125 15.140625 -9.609375 15.515625 -9.046875 C 15.898438 -8.492188 16.15625 -7.921875 16.28125 -7.328125 C 16.40625 -6.742188 16.46875 -6.203125 16.46875 -5.703125 C 16.46875 -4.804688 16.285156 -3.976562 15.921875 -3.21875 C 15.554688 -2.46875 15.03125 -1.820312 14.34375 -1.28125 C 13.664062 -0.738281 12.835938 -0.3125 11.859375 0 C 10.878906 0.3125 9.773438 0.46875 8.546875 0.46875 C 7.265625 0.46875 6.0625 0.332031 4.9375 0.0625 C 3.820312 -0.195312 2.945312 -0.507812 2.3125 -0.875 L 1.796875 -1.421875 L 2.4375 -6.578125 L 3.8125 -6.578125 L 3.9375 -6.40625 C 3.9375 -5.175781 4.3125 -4.207031 5.0625 -3.5 C 5.820312 -2.789062 6.941406 -2.4375 8.421875 -2.4375 C 9.203125 -2.4375 9.863281 -2.507812 10.40625 -2.65625 C 10.957031 -2.8125 11.390625 -3.007812 11.703125 -3.25 C 12.023438 -3.488281 12.253906 -3.753906 12.390625 -4.046875 C 12.535156 -4.335938 12.609375 -4.609375 12.609375 -4.859375 C 12.609375 -5.054688 12.59375 -5.265625 12.5625 -5.484375 C 12.539062 -5.710938 12.457031 -5.941406 12.3125 -6.171875 C 12.175781 -6.410156 11.96875 -6.648438 11.6875 -6.890625 C 11.40625 -7.128906 11.003906 -7.332031 10.484375 -7.5 L 6.453125 -8.5 C 5.535156 -8.726562 4.78125 -9.050781 4.1875 -9.46875 C 3.601562 -9.882812 3.132812 -10.351562 2.78125 -10.875 C 2.4375 -11.394531 2.203125 -11.945312 2.078125 -12.53125 C 1.953125 -13.113281 1.890625 -13.703125 1.890625 -14.296875 C 1.890625 -15.210938 2.066406 -16.023438 2.421875 -16.734375 C 2.785156 -17.453125 3.28125 -18.039062 3.90625 -18.5 C 4.539062 -18.957031 5.273438 -19.304688 6.109375 -19.546875 C 6.953125 -19.785156 7.863281 -19.90625 8.84375 -19.90625 C 10.070312 -19.90625 11.203125 -19.757812 12.234375 -19.46875 C 13.265625 -19.175781 14.0625 -18.859375 14.625 -18.515625 L 15.171875 -18.015625 L 14.703125 -13.953125 L 13.40625 -13.953125 L 13.25 -14.078125 C 13.25 -14.691406 13.085938 -15.203125 12.765625 -15.609375 C 12.441406 -16.015625 12.046875 -16.335938 11.578125 -16.578125 C 11.117188 -16.816406 10.640625 -16.984375 10.140625 -17.078125 C 9.640625 -17.171875 9.191406 -17.21875 8.796875 -17.21875 C 7.679688 -17.21875 6.882812 -16.976562 6.40625 -16.5 C 5.9375 -16.03125 5.703125 -15.503906 5.703125 -14.921875 C 5.703125 -14.421875 5.859375 -13.929688 6.171875 -13.453125 C 6.492188 -12.972656 7.117188 -12.625 8.046875 -12.40625 Z M 11.015625 -11.734375 "/></g></g></g></svg>